<?xml version="1.0" standalone="no"?>
<!DOCTYPE svg PUBLIC "-//W3C//DTD SVG 20010904//EN"
 "http://www.w3.org/TR/2001/REC-SVG-20010904/DTD/svg10.dtd">
<svg version="1.0" xmlns="http://www.w3.org/2000/svg"
 width="700.000000pt" height="700.000000pt" viewBox="0 0 700.000000 700.000000"
 preserveAspectRatio="xMidYMid meet">
<metadata>
Created by potrace 1.14, written by Peter Selinger 2001-2017
</metadata>
<g transform="translate(0.000000,700.000000) scale(0.100000,-0.100000)"
fill="#000000" stroke="none">
<path d="M3454 6985 c-24 -10 -49 -42 -104 -131 -40 -66 -95 -154 -121 -197
-27 -43 -49 -82 -49 -86 0 -5 -3 -11 -8 -13 -4 -1 -49 -73 -101 -158 -52 -85
-130 -213 -173 -285 -43 -71 -110 -179 -147 -240 -108 -176 -289 -473 -345
-565 -28 -47 -54 -86 -58 -88 -5 -2 -8 -7 -8 -11 0 -5 -64 -113 -143 -242 -79
-129 -164 -268 -189 -309 -25 -41 -101 -165 -168 -275 -68 -110 -130 -212
-139 -227 -9 -15 -43 -71 -76 -125 -33 -54 -64 -106 -70 -116 -21 -36 -338
-554 -363 -592 -15 -22 -32 -49 -38 -60 -16 -30 -513 -845 -539 -885 -13 -19
-71 -114 -129 -210 -58 -96 -110 -182 -116 -190 -83 -125 -338 -558 -352 -599
-35 -100 -4 -243 70 -319 27 -28 89 -70 255 -175 31 -21 60 -37 62 -37 3 0 22
-11 43 -24 108 -70 523 -279 677 -341 50 -20 104 -42 120 -50 170 -75 567
-201 845 -268 197 -48 519 -106 675 -121 22 -2 58 -7 80 -10 146 -20 353 -30
635 -31 327 0 547 12 755 40 184 25 280 41 390 62 72 13 143 27 160 30 16 3
91 20 165 39 74 19 143 37 153 39 10 2 86 25 169 50 524 161 1012 386 1481
682 138 88 180 128 215 203 30 64 37 160 18 225 -8 23 -44 94 -82 156 -38 62
-79 129 -90 148 -12 20 -225 369 -474 776 -249 407 -480 785 -513 840 -33 55
-75 123 -92 150 -41 64 -285 464 -299 490 -6 11 -27 45 -46 76 -49 77 -145
234 -201 327 -9 15 -53 88 -99 162 -46 74 -88 144 -94 155 -6 11 -27 45 -46
76 -19 30 -40 64 -47 75 -6 10 -105 172 -220 359 -114 187 -209 345 -211 352
-2 7 -8 13 -13 13 -5 0 -9 4 -9 9 0 5 -29 55 -64 112 -92 149 -247 404 -275
453 -12 22 -29 48 -35 56 -7 8 -46 70 -87 138 -41 68 -82 135 -91 150 -10 15
-21 34 -25 42 -5 9 -41 69 -82 135 -41 66 -105 171 -143 233 -38 61 -77 116
-87 122 -32 17 -75 19 -107 5z"/>
</g>
</svg>
